<?xml version="1.0" standalone="no"?><!DOCTYPE svg PUBLIC "-//W3C//DTD SVG 1.1//EN" "http://www.w3.org/Graphics/SVG/1.1/DTD/svg11.dtd"><svg width="32" height="32" viewBox="0 0 32 32" version="1.1" xmlns="http://www.w3.org/2000/svg" xmlns:xlink="http://www.w3.org/1999/xlink"><defs><style type="text/css"><![CDATA[
@font-face { font-family: ifont; src: url("//at.alicdn.com/t/font_1442373896_4754455.eot?#iefix") format("embedded-opentype"), url("//at.alicdn.com/t/font_1442373896_4754455.woff") format("woff"), url("//at.alicdn.com/t/font_1442373896_4754455.ttf") format("truetype"), url("//at.alicdn.com/t/font_1442373896_4754455.svg#ifont") format("svg"); }

]]></style></defs><g class="transform-group"><g transform="scale(0.03125, 0.03125)"><path d="M799.093266 627.567428c24.849364 0 31.119568-6.333326 31.119568-31.119568 0-14.349929-10.183821-26.09078-20.599092-34.317792l-1.977849-1.977849c-34.633407-26.785132-70.781762-52.307806-112.337642-68.172684 52.854871-45.364292 86.499353-112.569092 86.499353-187.68529 0-136.555777-110.75957-247.294306-247.315347-247.294306S287.208992 167.738468 287.208992 304.294245c0 75.116198 33.644482 142.320998 86.478312 187.68529C205.001993 556.701502 84.963363 719.81096 84.858159 911.409867l0 0.084164c0.105205 24.744159 10.962336 43.197074 35.664413 43.197074 24.912487 0 26.679927-17.884809 26.74305-42.607927 0-198.374093 119.218033-385.76481 387.237676-381.325169 81.34432 1.346621 176.659831 32.634516 234.77494 81.049746 15.780714 13.150595 19.252471 13.318922 26.30119 15.338854L799.093266 627.567428zM534.503298 482.700475c-127.718577-0.252491-189.116075-91.612304-189.116075-178.40623 0-86.751844 70.150533-188.316518 189.368566-188.316518 138.533626 0 189.368566 102.616722 189.368566 189.368566C724.124355 392.161259 643.495428 485.982863 534.503298 482.700475L534.503298 482.700475zM616.941747 746.490887c0 24.828323 20.136191 36.69542 44.964514 36.69542l239.86685 0c24.828323 0 44.964514-11.867097 44.964514-36.69542 0-24.870405-20.136191-34.317792-44.964514-34.317792l-239.86685 0C637.077938 712.173095 616.941747 721.620482 616.941747 746.490887L616.941747 746.490887zM901.773111 892.746543l-239.86685 0c-24.828323 0-44.964514 8.795118-44.964514 33.623441 0 24.870405 20.136191 33.896973 44.964514 33.896973l239.86685 0c24.828323 0 44.964514-9.047609 44.964514-33.896973C946.737625 901.541661 926.601434 892.746543 901.773111 892.746543L901.773111 892.746543zM901.773111 892.746543" fill="#ffffff"></path></g></g></svg>